<svg width="170" height="48" viewBox="0 0 170 48" fill="none" xmlns="http://www.w3.org/2000/svg">
<path d="M27.3513 25.9611C27.6896 27.0894 27.8587 28.1049 27.9715 29.0076C28.0843 29.9103 28.0279 30.5309 27.9715 30.7565H5.13572C5.07934 31.4335 5.07932 31.9977 5.07932 32.6183C5.07932 35.5519 6.03785 38.2599 7.84216 40.6858C9.53371 42.8296 11.8455 44.2401 14.6647 44.8606C18.6116 45.5376 22.1075 44.6914 25.2087 42.3219C25.6598 41.9834 26.0545 41.6449 26.4491 41.25C26.5619 41.1371 26.731 41.0807 26.9002 41.0243C27.0693 41.0243 27.2385 41.0807 27.3513 41.1936C27.464 41.3064 27.5768 41.4756 27.5768 41.5885C27.5768 41.7577 27.5768 41.927 27.4077 42.0398C26.9566 42.4347 26.5619 42.8296 26.1108 43.2246C24.4756 44.5785 22.615 45.6504 20.6415 46.3839C18.6681 47.1173 16.5254 47.4558 14.3264 47.3994C10.4923 47.1173 7.27831 45.7633 4.57184 43.2246C1.69622 40.2345 0.173843 36.7367 0.0046891 32.7311C-0.0516956 30.3616 0.399382 28.1049 1.41431 25.9611C2.48562 23.8173 4.00799 22.012 5.98146 20.4887C8.91346 18.4577 12.1274 17.4987 15.736 17.5551C17.5403 17.6115 19.2319 18.0064 20.8107 18.627C22.3894 19.2476 23.7427 20.2631 24.9267 21.5042C26.1108 22.8018 26.9002 24.2686 27.3513 25.9047V25.9611ZM23.6299 29.1204C23.6299 28.7819 23.6299 28.387 23.6299 27.9357C23.6299 27.4844 23.6299 27.033 23.5735 26.5253C23.348 24.4943 22.5586 22.689 21.2617 21.1657C19.9649 19.6989 18.1042 18.9091 15.7924 18.7962C12.6349 18.8526 10.0976 20.0938 8.23686 22.5197C6.71447 24.6635 5.75595 27.033 5.30487 29.6846H23.6863V29.1769L23.6299 29.1204Z" fill="#F8F8F8"/>
<path d="M34.0046 2.43542L39.1357 0.065918V47.5121H34.0046V2.43542Z" fill="#F8F8F8"/>
<path d="M72.5719 25.9611C72.9102 27.0894 73.0794 28.1049 73.1921 29.0076C73.3049 29.9103 73.2485 30.5309 73.1921 30.7565H50.3563C50.2999 31.4335 50.2999 31.9977 50.2999 32.6183C50.2999 35.5519 51.2585 38.2599 53.0628 40.6858C54.7543 42.8296 57.0661 44.2401 59.8853 44.8606C63.8323 45.5376 67.3281 44.6914 70.4293 42.3219C70.8803 41.9834 71.275 41.6449 71.6697 41.25C71.7825 41.1371 71.9517 41.0807 72.1208 41.0243C72.29 41.0243 72.4591 41.0807 72.5719 41.1936C72.6847 41.3064 72.7974 41.4756 72.7974 41.5885C72.7974 41.7577 72.7974 41.927 72.6283 42.0398C72.1772 42.4347 71.7825 42.8296 71.3314 43.2246C69.6963 44.5785 67.8356 45.6504 65.8621 46.3839C63.8886 47.1173 61.746 47.4558 59.547 47.3994C55.7128 47.1173 52.4989 45.7633 49.7925 43.2246C46.9168 40.2345 45.3944 36.7367 45.2253 32.7311C45.1689 30.3616 45.62 28.1049 46.6349 25.9611C47.7062 23.8173 49.2286 22.012 51.2021 20.4887C54.1341 18.4577 57.348 17.4987 60.9566 17.5551C62.7609 17.6115 64.4525 18.0064 66.0313 18.627C67.61 19.2476 68.9633 20.2631 70.1474 21.5042C71.3314 22.8018 72.1208 24.2686 72.5719 25.9047V25.9611ZM68.8505 29.1204C68.8505 28.7819 68.8505 28.387 68.8505 27.9357C68.8505 27.4844 68.8505 27.033 68.7941 26.5253C68.5686 24.4943 67.7792 22.689 66.4823 21.1657C65.1855 19.6989 63.3248 18.9091 61.013 18.7962C57.8555 18.8526 55.3182 20.0938 53.4575 22.5197C51.9351 24.6635 50.9765 27.033 50.5254 29.6846H68.9069V29.1769L68.8505 29.1204Z" fill="#F8F8F8"/>
<path d="M101.328 23.4784C101.779 21.5038 101.948 19.5857 101.836 17.6111H105.726C105.613 19.6421 105.219 21.6731 104.599 23.6477C103.978 25.6222 103.245 27.5404 102.4 29.4585C100.595 33.4077 98.509 37.244 96.1408 40.9675C94.9004 43.1113 94.7876 45.2551 95.8025 47.5118H90.2204L88.0214 42.9421C86.5554 39.8956 84.9203 36.4542 83.0596 32.505C81.1989 28.6123 79.5637 25.1709 78.0977 22.1244L75.8987 17.5547H81.5372L93.3216 42.2651C93.7727 41.5317 94.1673 40.7983 94.562 40.0084L95.0695 38.9929C96.8174 35.7772 98.3962 32.505 99.6931 29.1201C100.426 27.2583 100.934 25.3966 101.385 23.422L101.328 23.4784Z" fill="#F8F8F8"/>
<path d="M164.869 2.3695L170 0V47.4462H164.869V43.3278C164.531 43.6663 164.192 44.0048 163.798 44.3433C163.065 44.9639 162.332 45.5281 161.429 45.923C158.779 47.277 155.904 47.7283 152.915 47.2205C150.491 46.7692 148.405 45.8102 146.6 44.2869C144.796 42.7072 143.443 40.9583 142.428 38.8145C141.413 36.7271 140.905 34.6397 140.849 32.4959C140.849 30.2956 141.3 28.0954 142.259 26.008C143.274 23.8642 144.683 22.1152 146.544 20.592C148.348 19.1252 150.491 18.1661 152.915 17.6583C155.904 17.207 158.779 17.6583 161.429 18.9559C162.275 19.4073 163.065 19.9714 163.798 20.5356C164.136 20.8741 164.531 21.2126 164.869 21.5511V2.25667V2.3695ZM164.869 23.5821C164.869 23.5821 164.869 23.5256 164.813 23.4692C164.813 23.4128 164.7 23.3564 164.7 23.2436C164.192 22.5666 163.628 22.0024 162.952 21.4382C162.332 20.8741 161.655 20.4227 160.866 20.0278C159.061 19.1252 157.144 18.7867 155.227 19.0688C153.254 19.3508 151.562 20.1407 150.152 21.4947C148.743 22.9615 147.728 24.654 147.108 26.6286C146.431 28.6031 146.093 30.5777 146.093 32.4959C146.036 34.5269 146.318 36.6143 146.995 38.6453C147.728 40.6763 148.856 42.4252 150.434 43.892C151.9 45.1332 153.592 45.8666 155.453 46.0358C157.313 46.2615 159.118 45.923 160.866 45.0203C161.599 44.6254 162.332 44.1741 162.952 43.6099C163.628 43.0457 164.192 42.4252 164.7 41.8046C164.7 41.7482 164.813 41.6917 164.813 41.5789C164.813 41.5789 164.812 41.5225 164.869 41.5225V23.6949V23.5821Z" fill="#F8F8F8"/>
<g clip-path="url(#clip0_1_212)">
<path d="M124.231 21.4545L127.501 17.9053L127.909 17.4617L128.011 17.3508L128.036 17.3223C128.036 17.3223 128.069 17.2854 128.009 17.3536L128.009 17.3508L128.017 17.3422L128.028 17.328L128.075 17.2711L128.268 17.0379L128.461 16.8047C128.527 16.7279 128.593 16.6483 128.632 16.5801L128.91 16.1563C129.01 16.0283 129.081 15.8463 129.17 15.6956C129.252 15.5364 129.346 15.3856 129.407 15.215L129.614 14.7173C129.674 14.5495 129.718 14.3732 129.774 14.2054L129.854 13.9495L129.906 13.685C129.939 13.5087 129.983 13.3352 130.008 13.1589C130.044 12.8034 130.096 12.4507 130.085 12.0924C130.107 11.7369 130.058 11.3814 130.033 11.0288L129.939 10.5055C129.922 10.4202 129.911 10.332 129.889 10.2467L129.818 9.9936C129.765 9.82581 129.732 9.65234 129.669 9.49023L129.481 9.00108C129.426 8.83614 129.33 8.68826 129.258 8.53184C129.181 8.37827 129.109 8.21901 129.01 8.07682L128.731 7.6417C128.629 7.50235 128.519 7.37153 128.414 7.23787L128.257 7.03595L128.078 6.85394L127.725 6.48708L127.176 6.02637L126.588 5.62538C126.384 5.50594 126.175 5.40356 125.971 5.2898C125.758 5.19311 125.54 5.11348 125.328 5.02248C125.108 4.94853 124.884 4.89166 124.666 4.82056C124.443 4.76937 124.214 4.73524 123.991 4.68974L123.309 4.62717L122.628 4.63286L121.955 4.70965L121.296 4.85184C121.084 4.92294 120.869 4.98266 120.657 5.05376C120.452 5.14476 120.246 5.22439 120.044 5.31824C119.851 5.42915 119.653 5.52869 119.465 5.64244L118.919 6.01784L118.409 6.44158C118.255 6.60084 118.1 6.76009 117.94 6.91367C117.469 7.46822 117.074 8.07397 116.765 8.71954C116.451 9.36795 116.283 10.0789 116.189 10.7899C116.101 11.5009 116.101 12.2317 116.233 12.937C116.366 13.6423 116.592 14.3249 116.914 14.9619L117.174 15.4283L117.48 15.8662C117.571 16.0198 117.706 16.1393 117.819 16.2786L117.993 16.4834C118.059 16.5573 118.15 16.6483 118.227 16.7308L120.16 18.75L124.026 22.7911C125.317 24.1363 126.602 25.4871 127.882 26.8437L129.804 28.8771L129.925 29.005L129.986 29.0676L130.016 29.0989L130.096 29.1871L130.11 29.2041L130.339 29.4714L130.568 29.7388C130.606 29.7843 130.642 29.8212 130.684 29.8781L130.821 30.0658C131.004 30.3189 131.186 30.5749 131.356 30.8308L131.778 31.5788C132.3 32.5997 132.664 33.7003 132.857 34.8322C133.052 35.9641 133.041 37.1244 132.876 38.2534C132.699 39.3796 132.371 40.4887 131.845 41.4954C131.329 42.505 130.662 43.4236 129.884 44.2199L129.128 44.9024C128.861 45.11 128.585 45.3091 128.312 45.5082C128.028 45.693 127.733 45.8551 127.443 46.0286C127.145 46.1822 126.834 46.3158 126.53 46.4552C126.219 46.5775 125.899 46.6799 125.582 46.7879C125.259 46.8761 124.934 46.9472 124.608 47.0211C124.28 47.0751 123.949 47.115 123.621 47.1548C123.29 47.1718 122.956 47.1775 122.626 47.1861C122.295 47.1633 121.964 47.1434 121.636 47.115C121.31 47.0609 120.982 47.0097 120.659 46.9443C120.339 46.8562 120.02 46.7765 119.705 46.677C119.396 46.5576 119.085 46.4467 118.781 46.3158C118.486 46.1651 118.186 46.0258 117.899 45.8608C117.62 45.6816 117.336 45.511 117.066 45.3205C116.807 45.1157 116.542 44.9138 116.291 44.7005L115.58 44.0094L115.125 43.4719C115.05 43.3809 114.973 43.2928 114.901 43.2018L114.7 42.9117C114.568 42.7155 114.43 42.5249 114.308 42.3258L113.972 41.7059C113.853 41.504 113.771 41.2821 113.677 41.066C113.591 40.847 113.481 40.6366 113.42 40.4091L113.211 39.7351C113.145 39.5104 113.106 39.2772 113.056 39.0468L112.985 38.7027C112.965 38.5861 112.954 38.4695 112.94 38.3529C112.916 38.1197 112.883 37.8865 112.866 37.6533C112.855 37.1841 112.83 36.7177 112.88 36.2513C112.896 35.7849 112.99 35.327 113.065 34.8692C113.114 34.6416 113.18 34.4198 113.236 34.1952C113.266 34.0842 113.293 33.9705 113.327 33.8596L113.445 33.5354C113.531 33.3192 113.6 33.1002 113.696 32.8926L113.997 32.2727C114.09 32.0622 114.226 31.8774 114.341 31.6783C114.463 31.4849 114.573 31.283 114.716 31.1067L115.13 30.5663C115.271 30.39 115.433 30.2308 115.585 30.0658C115.902 29.716 116.178 29.4743 116.473 29.1842L119.978 25.854L121.067 26.9773L117.838 30.5919C117.576 30.8877 117.27 31.2034 117.069 31.4735C116.958 31.6157 116.837 31.7466 116.738 31.8944L116.446 32.3409C116.341 32.4831 116.269 32.6509 116.184 32.8073C116.106 32.9666 116.007 33.1145 115.949 33.2851L115.751 33.7799C115.684 33.9449 115.649 34.1212 115.593 34.289L115.516 34.5421C115.494 34.6274 115.48 34.7156 115.461 34.8037C115.428 34.9772 115.387 35.1507 115.359 35.3242C115.326 35.6768 115.271 36.0266 115.282 36.3793C115.26 36.7319 115.307 37.0817 115.331 37.4315C115.353 37.605 115.392 37.7756 115.42 37.9491C115.436 38.0344 115.447 38.1226 115.467 38.2079L115.535 38.461C115.585 38.6288 115.618 38.7994 115.679 38.9615L115.864 39.4478C115.916 39.6128 116.01 39.7578 116.082 39.9171C116.159 40.0706 116.225 40.2299 116.324 40.3692L116.592 40.8044C116.688 40.9437 116.796 41.0774 116.898 41.2139L117.049 41.4186L117.223 41.6063L117.568 41.9789L118.103 42.451L118.677 42.8633C118.875 42.9856 119.085 43.0965 119.283 43.216C119.493 43.3184 119.711 43.4065 119.92 43.5032C120.138 43.5828 120.361 43.6483 120.579 43.725C120.803 43.7819 121.032 43.8246 121.255 43.8786L121.942 43.9639L122.631 43.9781L123.315 43.9213L123.991 43.8018C124.211 43.7364 124.432 43.6824 124.65 43.6141C124.862 43.526 125.077 43.452 125.284 43.3639C125.485 43.2558 125.692 43.162 125.891 43.051C126.081 42.9231 126.277 42.8093 126.464 42.6785L126.999 42.2491L127.493 41.7684C127.995 41.2082 128.414 40.5797 128.731 39.9028C129.057 39.2288 129.239 38.4894 129.327 37.75C129.41 37.0078 129.41 36.2513 129.258 35.5204C129.112 34.7895 128.861 34.0899 128.511 33.4444L128.232 32.9723C128.135 32.8443 128.042 32.722 127.953 32.5912L127.887 32.4945C127.86 32.4575 127.813 32.4092 127.777 32.3665L127.543 32.1049L127.308 31.8433L127.294 31.8262L127.286 31.8177C127.416 31.957 127.316 31.8518 127.344 31.8802L127.314 31.8489L127.253 31.7864L127.129 31.6612L125.157 29.679C123.842 28.3595 122.532 27.0342 121.227 25.7033L117.309 21.7161L115.351 19.7226L115.103 19.4666L114.813 19.1453C114.625 18.9263 114.421 18.7215 114.259 18.4798C114.088 18.2437 113.917 18.0105 113.754 17.7717L113.316 17.0152C112.769 15.9857 112.378 14.8652 112.174 13.7106C111.959 12.556 111.967 11.3672 112.13 10.2069C112.303 9.04943 112.645 7.91472 113.18 6.88238C113.704 5.84436 114.397 4.90303 115.205 4.09821L115.985 3.40714C116.261 3.19669 116.545 2.99762 116.826 2.79855C117.116 2.6137 117.422 2.45159 117.722 2.2838C118.031 2.13308 118.348 2.00226 118.663 1.86575C118.983 1.74631 119.311 1.64962 119.633 1.54724C119.962 1.46192 120.295 1.39935 120.626 1.32826C120.96 1.27991 121.296 1.24863 121.63 1.2145C121.966 1.20597 122.303 1.20597 122.637 1.20312C122.97 1.23156 123.304 1.26 123.635 1.29697C123.963 1.35954 124.291 1.41642 124.617 1.48751C124.937 1.58136 125.259 1.66952 125.574 1.77759C125.882 1.90272 126.194 2.02217 126.495 2.16152C126.79 2.31793 127.085 2.46581 127.372 2.6336C127.647 2.81846 127.929 2.99478 128.196 3.19101C128.453 3.40146 128.712 3.60622 128.96 3.8252L129.658 4.52764L130.099 5.06798L130.317 5.34099L130.51 5.63391C130.637 5.83014 130.769 6.02068 130.888 6.21976L131.213 6.83688C131.329 7.0388 131.412 7.25778 131.503 7.47107C131.585 7.68721 131.693 7.89481 131.754 8.11948L131.958 8.78495C132.024 9.00677 132.06 9.23713 132.109 9.46464L132.178 9.80591C132.198 9.91966 132.206 10.0363 132.222 10.15C132.247 10.3804 132.275 10.6107 132.294 10.8382C132.297 11.299 132.327 11.7597 132.28 12.2175C132.264 12.6782 132.176 13.1304 132.101 13.5798C132.057 13.8044 131.991 14.0234 131.936 14.2452L131.847 14.5751L131.732 14.8965C131.652 15.1098 131.58 15.3259 131.489 15.5335L131.194 16.1478C131.103 16.3554 130.976 16.5431 130.86 16.7365L130.684 17.0237C130.628 17.1204 130.565 17.2143 130.491 17.3109L130.066 17.874C129.994 17.9736 129.925 18.0447 129.856 18.1186L129.652 18.3404L129.448 18.5623L129.396 18.6163L129.338 18.6789L129.31 18.7045L129.203 18.8097L128.773 19.2306L125.331 22.6034L124.242 21.4801L124.231 21.4545Z" fill="#F6C34C"/>
</g>
<defs>
<clipPath id="clip0_1_212">
<rect width="46" height="21" fill="white" transform="translate(133 1.17773) rotate(90)"/>
</clipPath>
</defs>
</svg>
